# xmcd
#
# Track frame offsets: 
#        150
#        21684
#        41369
#        59169
#        74507
#        95294
#        112830
#        123758
#        140191
#        160954
#
# Disc length: 2388 seconds
#
# Revision: 2
# Processed by: cddbd v1.5.2PL0 Copyright (c) Steve Scherf et al.
# Submitted via: ExactAudioCopy v0.95a5
#
DISCID=9109520a
DTITLE=Nick DeCaro - k-Italian Graffiti
DYEAR=1974
DGENRE=Rock
TTITLE0=Under The Jamaican Moon
TTITLE1=Happier Than The Morning Sun
TTITLE2=Tea For Two
TTITLE3=All I Want
TTITLE4=Wailing Wall
TTITLE5=Angie Girl
TTITLE6=Getting Mighty Crowded
TTITLE7=While The City Sleeps
TTITLE8=Canned Music
TTITLE9=Tapestry
EXTD=YEAR: 1974
EXTT0=
EXTT1=
EXTT2=
EXTT3=
EXTT4=
EXTT5=
EXTT6=
EXTT7=
EXTT8=
EXTT9=
PLAYORDER=
